<svg xmlns="http://www.w3.org/2000/svg" viewBox="18.773 12.203 336.551 370.016" role="img">
<defs><clipPath id="clip-0">
<path clip-rule="nonzero" d="M 117 100 L 221 100 L 221 196 L 117 196 Z M 117 100 "/>
</clipPath>
<clipPath id="clip-1">
<path clip-rule="nonzero" d="M 120.917969 101.1875 C 117.589844 103.585938 133.617188 142.082031 156.097656 165.058594 C 156.097656 165.058594 144.269531 155.589844 133.902344 140.503906 C 123.53125 125.414062 121.367188 112.261719 117.8125 113.125 C 114.253906 113.992188 122.101562 143.527344 149.242188 170.734375 C 149.242188 170.734375 138.851562 163.0625 131.140625 152.789062 C 124.390625 143.800781 121.636719 131.460938 117.898438 133.347656 C 114.933594 134.847656 134.332031 188.273438 196.605469 195.621094 C 203.007812 196.378906 217.171875 194.886719 219.773438 189.941406 C 222.378906 184.996094 221.613281 179.523438 197.054688 161.371094 C 179.15625 148.140625 168.640625 129.363281 167.136719 130.632812 C 165.242188 132.226562 167.722656 140.851562 172.835938 148.582031 C 177.367188 155.4375 184.183594 161.390625 188.6875 164.089844 C 177.710938 161.039062 170.972656 156.683594 156.785156 141.1875 C 142.605469 125.691406 137.832031 104.972656 133.5 105.929688 C 129.175781 106.890625 141.8125 140.042969 162.042969 158.988281 C 162.042969 158.988281 146.972656 145.429688 138.636719 132.214844 C 130.761719 119.722656 124.921875 100.996094 121.492188 100.992188 C 121.292969 100.992188 121.101562 101.054688 120.917969 101.1875 "/>
</clipPath>
<clipPath id="clip-8">
<path clip-rule="nonzero" d="M 155 124 L 263 124 L 263 215 L 155 215 Z M 155 124 "/>
</clipPath>
<clipPath id="clip-9">
<path clip-rule="nonzero" d="M 239.957031 154.421875 C 230.941406 167.183594 215.175781 179.929688 215.175781 179.929688 C 236.375 162.074219 250.738281 129.632812 246.46875 128.449219 C 242.195312 127.261719 236.339844 147.703125 221.359375 162.433594 C 206.378906 177.164062 199.421875 181.152344 188.300781 183.621094 C 192.9375 181.160156 200.058594 175.578125 204.949219 168.96875 C 210.460938 161.519531 213.390625 153.035156 211.582031 151.34375 C 210.144531 149.996094 198.652344 168.195312 180.089844 180.464844 C 154.605469 197.304688 153.558594 202.726562 155.894531 207.804688 C 158.238281 212.875 172.300781 215.113281 178.734375 214.695312 C 241.304688 210.632812 263.488281 158.296875 260.605469 156.648438 C 256.976562 154.566406 253.574219 166.742188 246.363281 175.367188 C 238.121094 185.21875 227.34375 192.332031 227.34375 192.332031 C 255.875 166.589844 265.261719 137.507812 261.761719 136.460938 C 258.253906 135.40625 255.398438 148.425781 244.25 162.949219 C 233.105469 177.46875 220.792969 186.308594 220.792969 186.308594 C 244.449219 164.542969 262.480469 126.941406 259.28125 124.375 C 259.09375 124.222656 258.886719 124.148438 258.667969 124.148438 C 255.230469 124.148438 248.4375 142.421875 239.957031 154.421875 "/>
</clipPath></defs>
<path fill="#98B2C2" d="M 278.351562 295.773438 L 276.226562 295.773438 C 272.394531 295.773438 270.691406 296.835938 270.691406 298.753906 L 270.691406 357.722656 C 270.691406 362.085938 268.988281 363.46875 266.113281 363.46875 C 264.304688 363.46875 263.238281 363.042969 262.386719 363.042969 C 260.472656 363.042969 259.195312 367.621094 259.195312 369.535156 C 259.195312 373.261719 262.707031 374.21875 269.09375 374.21875 C 276.652344 374.21875 283.890625 369.746094 283.890625 357.933594 L 283.890625 298.753906 C 283.890625 296.835938 282.292969 295.773438 278.351562 295.773438 "/>
<path fill="#98B2C2" d="M 278.460938 271.503906 L 276.121094 271.503906 C 272.179688 271.503906 270.476562 272.570312 270.476562 274.484375 L 270.476562 282.253906 C 270.476562 284.277344 272.179688 285.234375 276.121094 285.234375 L 278.460938 285.234375 C 282.398438 285.234375 284.101562 284.277344 284.101562 282.253906 L 284.101562 274.484375 C 284.101562 272.570312 282.398438 271.503906 278.460938 271.503906 "/>
<path fill="#98B2C2" d="M 322.308594 341.648438 C 318.371094 341.648438 315.175781 340.371094 312.730469 338.5625 L 312.730469 312.910156 C 315.5 309.078125 319.222656 306.203125 323.480469 306.203125 C 330.292969 306.203125 333.804688 312.589844 333.804688 324.191406 C 333.804688 335.476562 329.972656 341.542969 322.308594 341.648438 M 327.097656 295.242188 C 320.710938 295.242188 315.390625 298.328125 311.878906 303.222656 C 311.238281 300.5625 310.921875 296.304688 307.835938 296.304688 C 305.597656 296.304688 298.148438 297.050781 298.148438 299.390625 C 298.148438 300.878906 299.425781 303.863281 299.425781 313.761719 L 299.425781 370.601562 C 299.425781 372.621094 301.128906 373.683594 305.066406 373.683594 L 307.089844 373.683594 C 311.03125 373.683594 312.730469 372.621094 312.730469 370.601562 L 312.730469 348.355469 C 315.605469 350.484375 319.542969 352.398438 325.183594 352.398438 C 338.914062 352.398438 347.324219 341.648438 347.324219 323.871094 C 347.324219 306.097656 339.234375 295.242188 327.097656 295.242188 "/>
<path fill="#98B2C2" d="M 247.015625 326.203125 C 246.417969 328.824219 245.625 331.21875 244.632812 333.382812 C 243.644531 335.550781 242.484375 337.34375 241.167969 338.769531 C 239.847656 340.191406 238.488281 340.90625 237.085938 340.90625 C 235.472656 340.90625 234.09375 340.5625 232.9375 339.882812 C 231.78125 339.203125 230.851562 338.292969 230.152344 337.160156 C 229.449219 336.023438 228.933594 334.695312 228.605469 333.167969 C 228.273438 331.640625 228.109375 330.011719 228.109375 328.277344 C 228.109375 325.761719 228.4375 323.140625 229.097656 320.414062 C 229.757812 317.695312 230.664062 315.207031 231.824219 312.957031 C 232.980469 310.710938 234.320312 308.863281 235.84375 307.417969 C 237.371094 305.976562 238.980469 305.25 240.671875 305.25 C 241.949219 305.25 243.042969 305.605469 243.953125 306.304688 C 244.859375 307.007812 245.601562 307.953125 246.183594 309.152344 C 246.757812 310.351562 247.191406 311.761719 247.480469 313.390625 C 247.769531 315.019531 247.917969 316.785156 247.917969 318.683594 C 247.917969 321.078125 247.613281 323.582031 247.015625 326.203125 M 182.304688 320.414062 C 182.390625 319.140625 182.566406 317.816406 182.835938 316.457031 C 183.101562 315.09375 183.492188 313.742188 184.007812 312.402344 C 184.527344 311.058594 185.207031 309.863281 186.050781 308.808594 C 186.894531 307.757812 187.949219 306.90625 189.207031 306.242188 C 190.464844 305.582031 191.984375 305.25 193.757812 305.25 C 194.746094 305.25 195.582031 305.851562 196.265625 307.046875 C 196.945312 308.246094 197.285156 309.769531 197.285156 311.628906 C 197.285156 312.945312 196.769531 314.308594 195.738281 315.714844 C 194.707031 317.117188 193.433594 318.417969 191.929688 319.613281 C 190.421875 320.808594 188.792969 321.789062 187.039062 322.550781 C 185.289062 323.316406 183.667969 323.695312 182.179688 323.695312 C 182.179688 322.789062 182.222656 321.695312 182.304688 320.414062 M 109.445312 336.941406 C 109.445312 334.304688 109.355469 332.011719 109.167969 330.074219 C 108.980469 328.132812 108.734375 326.421875 108.425781 324.933594 C 108.117188 323.449219 107.796875 322.140625 107.464844 321.003906 C 107.136719 319.871094 106.816406 318.796875 106.503906 317.785156 C 106.199219 316.773438 105.949219 315.742188 105.765625 314.691406 C 105.578125 313.640625 105.484375 312.472656 105.484375 311.191406 C 105.609375 310.742188 106.09375 310.050781 106.941406 309.121094 C 107.785156 308.195312 108.683594 307.171875 109.632812 306.054688 C 110.582031 304.941406 111.449219 303.789062 112.234375 302.589844 C 113.015625 301.394531 113.40625 300.300781 113.40625 299.3125 C 113.40625 298.816406 113.367188 298.226562 113.28125 297.546875 C 113.242188 297.207031 113.148438 296.878906 113.007812 296.558594 C 113.039062 296.558594 113.066406 296.566406 113.097656 296.566406 L 127.703125 296.566406 C 127.648438 299 127.738281 301.757812 127.589844 303.710938 C 127.386719 306.515625 127.285156 309.15625 127.285156 311.632812 C 127.285156 317.324219 127.625 322.46875 128.269531 327.136719 C 127.304688 327.757812 126.347656 328.324219 125.386719 328.839844 L 125.371094 328.839844 C 125.351562 328.847656 125.339844 328.859375 125.324219 328.867188 C 123.363281 329.917969 121.457031 330.878906 119.597656 331.746094 C 117.742188 332.609375 115.953125 333.445312 114.242188 334.25 C 112.53125 335.054688 110.933594 335.949219 109.445312 336.941406 M 95.457031 336.851562 C 95.214844 338.027344 94.777344 339.058594 94.160156 339.945312 C 93.539062 340.832031 92.703125 341.542969 91.652344 342.078125 C 90.601562 342.617188 89.269531 342.882812 87.660156 342.882812 C 86.339844 342.882812 85.164062 342.574219 84.132812 341.953125 C 83.101562 341.335938 82.191406 340.65625 81.410156 339.910156 C 80.625 339.171875 79.933594 338.492188 79.335938 337.871094 C 78.734375 337.253906 78.191406 336.941406 77.695312 336.941406 L 93.601562 321.097656 C 93.808594 321.757812 94.042969 322.550781 94.316406 323.480469 C 94.582031 324.410156 94.828125 325.398438 95.054688 326.449219 C 95.28125 327.503906 95.46875 328.605469 95.617188 329.761719 C 95.757812 330.917969 95.828125 332.050781 95.828125 333.167969 C 95.828125 334.449219 95.707031 335.671875 95.457031 336.851562 M 59.546875 326.203125 C 58.949219 328.824219 58.15625 331.21875 57.164062 333.382812 C 56.175781 335.550781 55.019531 337.34375 53.699219 338.769531 C 52.378906 340.191406 51.015625 340.90625 49.613281 340.90625 C 48.003906 340.90625 46.621094 340.5625 45.464844 339.882812 C 44.3125 339.203125 43.382812 338.292969 42.683594 337.160156 C 41.980469 336.023438 41.464844 334.695312 41.132812 333.167969 C 40.804688 331.640625 40.640625 330.011719 40.640625 328.277344 C 40.640625 325.761719 40.96875 323.140625 41.628906 320.414062 C 42.289062 317.695312 43.199219 315.207031 44.355469 312.957031 C 45.507812 310.710938 46.847656 308.863281 48.375 307.417969 C 49.902344 305.976562 51.511719 305.25 53.203125 305.25 C 54.480469 305.25 55.574219 305.605469 56.484375 306.304688 C 57.390625 307.007812 58.132812 307.953125 58.714844 309.152344 C 59.289062 310.351562 59.722656 311.761719 60.011719 313.390625 C 60.300781 315.019531 60.445312 316.785156 60.445312 318.683594 C 60.445312 321.078125 60.144531 323.582031 59.546875 326.203125 M 255.988281 303.5 C 255.988281 303.5 251.585938 294.492188 243.832031 293.367188 C 239.296875 292.714844 235.121094 294.203125 231.449219 295.875 C 227.777344 297.546875 224.671875 299.835938 222.136719 302.746094 C 219.597656 305.652344 217.648438 309.082031 216.289062 313.019531 C 214.925781 316.960938 214.246094 321.199219 214.246094 325.742188 C 214.246094 327.074219 214.324219 328.402344 214.449219 329.726562 C 212.183594 331.433594 209.789062 333.015625 207.25 334.464844 C 204.652344 335.949219 201.976562 337.191406 199.234375 338.179688 C 196.488281 339.171875 193.882812 339.664062 191.40625 339.664062 C 190.621094 339.664062 189.886719 339.582031 189.207031 339.417969 C 188.523438 339.253906 187.878906 338.964844 187.257812 338.550781 C 186.640625 338.140625 186.027344 337.5625 185.429688 336.816406 C 184.832031 336.074219 184.222656 335.148438 183.605469 334.035156 C 187.199219 333.042969 190.527344 331.660156 193.605469 329.886719 C 196.675781 328.113281 199.328125 326.089844 201.554688 323.820312 C 203.78125 321.550781 205.527344 319.140625 206.785156 316.578125 C 208.046875 314.019531 208.675781 311.460938 208.675781 308.902344 C 208.675781 306.550781 208.257812 304.429688 207.4375 302.527344 C 206.609375 300.632812 205.464844 299.011719 204 297.671875 C 202.535156 296.328125 200.8125 295.289062 198.832031 294.546875 C 196.851562 293.800781 194.707031 293.433594 192.398438 293.433594 C 189.546875 293.433594 186.957031 293.9375 184.628906 294.949219 C 182.296875 295.957031 180.191406 297.320312 178.3125 299.03125 C 176.4375 300.742188 174.796875 302.722656 173.394531 304.972656 C 171.992188 307.222656 170.824219 309.585938 169.898438 312.058594 C 168.96875 314.535156 168.277344 317.066406 167.824219 319.644531 C 167.367188 322.222656 167.140625 324.667969 167.140625 326.980469 C 167.140625 328.371094 167.242188 329.734375 167.402344 331.078125 C 165.878906 332.140625 164.332031 333.128906 162.769531 334.035156 C 162.085938 334.429688 161.425781 334.785156 160.769531 335.136719 C 160.53125 335.265625 160.296875 335.394531 160.0625 335.519531 C 159.320312 335.90625 158.585938 336.269531 157.878906 336.605469 C 156.332031 337.324219 154.910156 337.890625 153.609375 338.304688 C 152.308594 338.714844 151.222656 338.921875 150.359375 338.921875 C 148.957031 338.921875 147.695312 338.707031 146.5625 338.277344 C 145.425781 337.84375 144.472656 337.144531 143.6875 336.175781 C 142.902344 335.203125 142.300781 333.957031 141.890625 332.429688 C 141.476562 330.902344 140.601562 325.929688 140.601562 323.703125 C 140.601562 322.832031 140.367188 298.71875 141.773438 297.148438 C 142.367188 296.488281 149.070312 297.335938 149.070312 297.335938 L 172.839844 297.335938 C 173.828125 297.335938 174.734375 296.878906 175.5625 295.972656 C 176.386719 295.066406 176.800781 293.890625 176.800781 292.445312 C 176.800781 291.25 176.613281 290.257812 176.246094 289.472656 C 175.871094 288.691406 175.273438 288.277344 174.449219 288.234375 C 173.746094 288.195312 172.855469 288.152344 171.785156 288.113281 C 170.714844 288.074219 169.558594 288.027344 168.320312 287.988281 C 167.085938 287.949219 165.804688 287.894531 164.484375 287.835938 C 163.160156 287.773438 161.933594 287.71875 160.800781 287.679688 C 159.664062 287.640625 158.664062 287.605469 157.796875 287.585938 C 156.933594 287.566406 156.3125 287.535156 155.941406 287.492188 C 155.941406 287.492188 155.945312 287.488281 155.945312 287.484375 C 153.1875 287.339844 148.121094 287.070312 146.253906 287.019531 C 145.453125 287 143.53125 286.855469 141.222656 286.664062 C 141.203125 286.324219 141.183594 285.976562 141.164062 285.632812 C 141.160156 285.636719 141.15625 285.640625 141.152344 285.640625 C 141.09375 285.128906 141.054688 284.277344 141.023438 283.085938 C 140.996094 281.890625 140.953125 280.515625 140.898438 278.953125 C 140.839844 277.386719 140.769531 275.699219 140.683594 273.878906 C 140.597656 272.0625 140.527344 270.296875 140.46875 268.59375 C 140.414062 266.890625 140.355469 265.300781 140.300781 263.820312 C 140.242188 262.34375 140.1875 261.125 140.132812 260.15625 C 140.074219 259.019531 139.503906 258.199219 138.425781 257.6875 C 137.347656 257.171875 135.980469 256.917969 134.335938 256.917969 C 132.34375 256.917969 130.726562 257.488281 129.476562 258.621094 C 128.226562 259.761719 127.601562 261.007812 127.601562 262.371094 L 127.601562 286.835938 C 126.859375 286.855469 126.054688 286.878906 125.140625 286.910156 C 124.003906 286.953125 122.773438 287.003906 121.457031 287.066406 C 120.136719 287.128906 118.855469 287.179688 117.617188 287.222656 C 116.382812 287.261719 115.222656 287.304688 114.152344 287.347656 C 113.078125 287.386719 112.191406 287.429688 111.492188 287.46875 C 110.664062 287.511719 110.066406 287.921875 109.695312 288.710938 C 109.324219 289.492188 109.136719 290.480469 109.136719 291.675781 C 109.136719 292.488281 109.285156 293.210938 109.546875 293.851562 C 108.515625 293.535156 107.175781 293.367188 105.484375 293.367188 C 104.289062 293.367188 103.203125 293.542969 102.234375 293.894531 C 101.269531 294.242188 100.378906 294.699219 99.574219 295.253906 C 98.769531 295.816406 98.039062 296.441406 97.378906 297.144531 C 96.714844 297.847656 96.121094 298.570312 95.582031 299.3125 C 92.941406 302.613281 90.796875 305.367188 89.144531 307.574219 C 87.496094 309.78125 86.09375 311.648438 84.9375 313.175781 C 83.78125 314.703125 82.78125 316.023438 81.933594 317.136719 C 81.089844 318.25 80.148438 319.355469 79.117188 320.449219 C 78.085938 321.539062 76.847656 322.75 75.40625 324.070312 C 74.429688 324.960938 73.238281 326.019531 71.867188 327.210938 C 72.175781 325.347656 72.332031 323.496094 72.332031 321.65625 C 72.332031 319.21875 72.996094 312.273438 68.519531 303.5 C 68.519531 303.5 64.117188 294.492188 56.359375 293.367188 C 51.828125 292.714844 47.652344 294.203125 43.980469 295.875 C 40.308594 297.546875 37.203125 299.835938 34.667969 302.746094 C 32.125 305.652344 30.179688 309.082031 28.816406 313.019531 C 27.457031 316.960938 26.773438 321.199219 26.773438 325.742188 C 26.773438 329.042969 27.15625 332.300781 27.921875 335.519531 C 28.683594 338.738281 29.890625 341.625 31.542969 344.1875 C 33.191406 346.746094 35.304688 348.816406 37.882812 350.40625 C 40.464844 351.992188 43.566406 352.785156 47.199219 352.785156 C 49.714844 352.785156 52.089844 352.351562 54.320312 351.484375 C 56.542969 350.621094 58.597656 349.445312 60.476562 347.960938 C 62.351562 346.472656 64.023438 344.722656 65.488281 342.699219 C 65.832031 342.226562 66.117188 341.71875 66.4375 341.230469 C 66.519531 341.242188 66.589844 341.269531 66.675781 341.273438 C 67.253906 341.316406 67.875 341.335938 68.535156 341.335938 C 69.070312 341.335938 69.617188 341.316406 70.175781 341.273438 C 70.730469 341.238281 71.296875 341.152344 71.875 341.027344 C 72.085938 343.253906 72.679688 345.152344 73.675781 346.722656 C 74.664062 348.292969 75.953125 349.558594 77.539062 350.527344 C 79.128906 351.5 80.976562 352.210938 83.078125 352.664062 C 85.1875 353.117188 87.453125 353.34375 89.886719 353.34375 C 93.269531 353.34375 96.851562 352.960938 100.625 352.199219 C 104.402344 351.433594 108.136719 350.398438 111.832031 349.070312 C 113.992188 348.300781 116.085938 347.449219 118.136719 346.535156 L 118.136719 346.546875 C 118.28125 346.480469 118.421875 346.40625 118.570312 346.339844 C 119.648438 345.847656 120.710938 345.34375 121.757812 344.816406 C 121.976562 344.707031 122.207031 344.609375 122.425781 344.496094 C 125.679688 342.820312 128.542969 341.03125 131.046875 339.121094 C 131.375 340.03125 131.722656 340.910156 132.097656 341.738281 C 133.710938 345.308594 135.710938 348.042969 138.101562 349.941406 C 139.300781 350.890625 140.589844 351.601562 141.976562 352.078125 C 143.359375 352.554688 144.839844 352.792969 146.410156 352.792969 C 147.933594 352.792969 149.636719 352.503906 151.515625 351.925781 C 153.390625 351.347656 155.535156 350.480469 157.953125 349.324219 C 159.066406 348.792969 160.265625 348.1875 161.527344 347.53125 L 161.527344 347.519531 C 162.988281 346.757812 164.542969 345.917969 166.203125 344.992188 C 167.714844 344.144531 169.328125 343.226562 171.042969 342.246094 C 171.625 343.214844 172.25 344.148438 172.960938 345.019531 C 174.902344 347.390625 177.324219 349.28125 180.234375 350.683594 C 183.140625 352.085938 186.535156 352.785156 190.414062 352.785156 C 192.890625 352.785156 195.335938 352.507812 197.75 351.949219 C 200.164062 351.394531 202.492188 350.652344 204.742188 349.722656 C 206.992188 348.792969 209.140625 347.730469 211.179688 346.535156 C 213.222656 345.339844 215.128906 344.121094 216.90625 342.882812 C 217.222656 342.660156 217.53125 342.414062 217.847656 342.1875 C 218.207031 342.871094 218.59375 343.539062 219.007812 344.1875 C 220.660156 346.746094 222.773438 348.816406 225.351562 350.40625 C 227.933594 351.992188 231.039062 352.785156 234.671875 352.785156 C 237.1875 352.785156 239.558594 352.351562 241.789062 351.484375 C 244.015625 350.621094 246.070312 349.445312 247.945312 347.960938 C 249.820312 346.472656 251.492188 344.722656 252.960938 342.699219 C 254.421875 340.675781 255.664062 338.507812 256.671875 336.199219 C 257.683594 333.890625 258.457031 331.496094 258.992188 329.019531 C 259.53125 326.542969 259.796875 324.089844 259.796875 321.65625 C 259.796875 319.21875 260.464844 312.273438 255.988281 303.5 "/>
<g clip-path="url(#clip-0)">
<g clip-path="url(#clip-1)">
<path fill="#8B1863" d="M 121.117188 74.628906 L 90.996094 190.324219 L 215.515625 222.742188 L 245.636719 107.050781 Z M 121.117188 74.628906 "/>
</g>
</g>
<path fill="#98B2C2" d="M 193.410156 81.019531 C 204.332031 81.019531 213.183594 72.164062 213.183594 61.246094 C 213.183594 50.324219 204.332031 41.46875 193.410156 41.46875 C 182.488281 41.46875 173.632812 50.324219 173.632812 61.246094 C 173.632812 72.164062 182.488281 81.019531 193.410156 81.019531 "/>
<path fill="#98B2C2" d="M 249.070312 39.953125 C 247.230469 32.058594 243.445312 25.105469 236.558594 20.203125 C 238.480469 24.84375 240.542969 29.390625 241.300781 34.359375 C 243.5625 49.203125 236.949219 60.457031 226.503906 69.972656 C 216.511719 79.070312 204.277344 84.308594 191.960938 89.3125 C 184.539062 92.324219 177.582031 96.105469 171.546875 101.402344 C 161.96875 109.804688 154.382812 119.539062 151.527344 132.316406 C 151.527344 132.316406 146.886719 152.207031 148.355469 160.554688 C 148.785156 165.59375 149.574219 170.539062 152.601562 175.0625 C 153.550781 168.570312 151.960938 159.984375 161.386719 136.574219 C 164.519531 129.382812 179.097656 114.660156 181.808594 118.152344 C 184.078125 121.074219 181.0625 136.375 180.316406 139.480469 C 177.691406 150.460938 173.816406 160.085938 171.277344 170.613281 C 169.125 179.539062 167.203125 188.464844 166.519531 197.464844 C 170.566406 198.863281 175.203125 200.445312 179.753906 201.984375 C 179.9375 201.707031 180.046875 201.375 180.046875 201.023438 C 180.046875 200.0625 179.261719 199.273438 178.300781 199.273438 L 174.253906 199.273438 C 174.464844 198.054688 174.714844 196.839844 175.003906 195.628906 L 180.429688 195.628906 C 181.390625 195.628906 182.175781 194.84375 182.175781 193.882812 C 182.175781 192.921875 181.390625 192.132812 180.429688 192.132812 L 175.953125 192.132812 C 176.355469 190.789062 176.804688 189.449219 177.296875 188.109375 L 182.296875 188.109375 C 183.257812 188.109375 184.042969 187.324219 184.042969 186.359375 C 184.042969 185.398438 183.257812 184.613281 182.296875 184.613281 L 178.675781 184.613281 C 179.1875 183.394531 179.730469 182.171875 180.304688 180.9375 C 180.394531 180.953125 180.484375 180.96875 180.582031 180.96875 L 184.523438 180.96875 C 185.484375 180.96875 186.273438 180.179688 186.273438 179.21875 C 186.273438 178.257812 185.484375 177.472656 184.523438 177.472656 L 181.984375 177.472656 C 182.679688 176.089844 183.40625 174.695312 184.167969 173.285156 C 184.328125 173.335938 184.5 173.371094 184.675781 173.371094 L 187.867188 173.371094 C 188.828125 173.371094 189.617188 172.582031 189.617188 171.621094 C 189.617188 170.660156 188.828125 169.875 187.867188 169.875 L 186.042969 169.875 C 186.703125 168.699219 187.375 167.511719 188.070312 166.304688 L 192.804688 166.304688 C 193.765625 166.304688 194.550781 165.519531 194.550781 164.558594 C 194.550781 163.597656 193.765625 162.808594 192.804688 162.808594 L 190.097656 162.808594 C 190.777344 161.648438 191.472656 160.460938 192.179688 159.265625 L 198.277344 159.265625 C 199.234375 159.265625 200.023438 158.476562 200.023438 157.515625 C 200.023438 156.554688 199.234375 155.769531 198.277344 155.769531 L 194.238281 155.769531 C 194.542969 155.25 194.851562 154.730469 195.160156 154.199219 C 195.59375 153.457031 196.011719 152.707031 196.414062 151.945312 L 201.464844 151.945312 C 202.425781 151.945312 203.214844 151.160156 203.214844 150.199219 C 203.214844 149.238281 202.425781 148.453125 201.464844 148.453125 L 198.109375 148.453125 C 198.660156 147.226562 199.167969 145.980469 199.644531 144.730469 L 204.351562 144.730469 C 205.3125 144.730469 206.101562 143.941406 206.101562 142.980469 C 206.101562 142.019531 205.3125 141.234375 204.351562 141.234375 L 200.863281 141.234375 C 201.253906 140.023438 201.613281 138.808594 201.945312 137.589844 L 206.175781 137.589844 C 207.136719 137.589844 207.921875 136.800781 207.921875 135.839844 C 207.921875 134.878906 207.136719 134.09375 206.175781 134.09375 L 202.820312 134.09375 C 203.074219 132.976562 203.308594 131.859375 203.523438 130.75 L 206.933594 130.75 C 207.894531 130.75 208.683594 129.964844 208.683594 129.003906 C 208.683594 128.042969 207.894531 127.253906 206.933594 127.253906 L 204.140625 127.253906 C 204.285156 126.335938 204.417969 125.425781 204.535156 124.519531 L 206.554688 124.519531 C 207.515625 124.519531 208.304688 123.734375 208.304688 122.773438 C 208.304688 121.8125 207.515625 121.027344 206.554688 121.027344 L 204.949219 121.027344 C 205.054688 120.023438 205.144531 119.035156 205.222656 118.0625 L 206.933594 118.0625 C 207.894531 118.0625 208.683594 117.277344 208.683594 116.316406 C 208.683594 115.355469 207.894531 114.570312 206.933594 114.570312 L 205.449219 114.570312 C 205.511719 113.421875 205.554688 112.304688 205.585938 111.226562 L 206.933594 111.226562 C 207.894531 111.226562 208.683594 110.441406 208.683594 109.476562 C 208.683594 108.515625 207.894531 107.734375 206.933594 107.734375 L 205.640625 107.734375 C 205.644531 106.082031 205.617188 104.554688 205.578125 103.171875 L 206.175781 103.171875 C 207.136719 103.171875 207.921875 102.386719 207.921875 101.425781 C 207.921875 100.464844 207.136719 99.679688 206.175781 99.679688 L 205.425781 99.679688 C 205.378906 98.914062 205.335938 98.234375 205.289062 97.65625 C 205.347656 97.535156 205.398438 97.417969 205.453125 97.292969 C 206.511719 94.949219 204.296875 92.234375 203.019531 89.855469 C 210.507812 101.132812 216.324219 111.753906 214.832031 129.664062 C 214.492188 133.769531 212.976562 141.910156 211.925781 145.894531 C 207.832031 161.386719 197.375 172.5 190.84375 187.019531 C 188.367188 192.53125 186.523438 198.148438 185.277344 203.851562 C 186.734375 204.347656 188.148438 204.820312 189.496094 205.277344 C 189.933594 203.121094 190.511719 201.007812 191.234375 198.941406 C 194.328125 190.113281 198.886719 181.660156 204.332031 173.796875 C 208.1875 168.234375 224.550781 141.574219 227.578125 135.019531 C 235.152344 118.59375 242.300781 102.175781 246.675781 84.378906 C 250.347656 69.4375 252.570312 54.949219 249.070312 39.953125 "/>
<g clip-path="url(#clip-8)">
<g clip-path="url(#clip-9)">
<path fill="#45B9A7" d="M 135.671875 127.8125 L 158.058594 237.078125 L 283.148438 211.449219 L 260.761719 102.183594 Z M 135.671875 127.8125 "/>
</g>
</g>
</svg>
