<svg xmlns="http://www.w3.org/2000/svg" viewBox="68.635 10.203 236.875 236.875" role="img">
<defs><clipPath id="clip-0">
<path clip-rule="nonzero" d="M 117 100 L 221 100 L 221 196 L 117 196 Z M 117 100 "/>
</clipPath>
<clipPath id="clip-1">
<path clip-rule="nonzero" d="M 120.917969 101.1875 C 117.589844 103.585938 133.617188 142.082031 156.097656 165.058594 C 156.097656 165.058594 144.269531 155.589844 133.902344 140.503906 C 123.53125 125.414062 121.367188 112.261719 117.8125 113.125 C 114.253906 113.992188 122.101562 143.527344 149.242188 170.734375 C 149.242188 170.734375 138.851562 163.0625 131.140625 152.789062 C 124.390625 143.800781 121.636719 131.460938 117.898438 133.347656 C 114.933594 134.847656 134.332031 188.273438 196.605469 195.621094 C 203.007812 196.378906 217.171875 194.886719 219.773438 189.941406 C 222.378906 184.996094 221.613281 179.523438 197.054688 161.371094 C 179.15625 148.140625 168.640625 129.363281 167.136719 130.632812 C 165.242188 132.226562 167.722656 140.851562 172.835938 148.582031 C 177.367188 155.4375 184.183594 161.390625 188.6875 164.089844 C 177.710938 161.039062 170.972656 156.683594 156.785156 141.1875 C 142.605469 125.691406 137.832031 104.972656 133.5 105.929688 C 129.175781 106.890625 141.8125 140.042969 162.042969 158.988281 C 162.042969 158.988281 146.972656 145.429688 138.636719 132.214844 C 130.761719 119.722656 124.921875 100.996094 121.492188 100.992188 C 121.292969 100.992188 121.101562 101.054688 120.917969 101.1875 "/>
</clipPath>
<clipPath id="clip-8">
<path clip-rule="nonzero" d="M 155 124 L 263 124 L 263 215 L 155 215 Z M 155 124 "/>
</clipPath>
<clipPath id="clip-9">
<path clip-rule="nonzero" d="M 239.957031 154.421875 C 230.941406 167.183594 215.175781 179.929688 215.175781 179.929688 C 236.375 162.074219 250.738281 129.632812 246.46875 128.449219 C 242.195312 127.261719 236.339844 147.703125 221.359375 162.433594 C 206.378906 177.164062 199.421875 181.152344 188.300781 183.621094 C 192.9375 181.160156 200.058594 175.578125 204.949219 168.96875 C 210.460938 161.519531 213.390625 153.035156 211.582031 151.34375 C 210.144531 149.996094 198.652344 168.195312 180.089844 180.464844 C 154.605469 197.304688 153.558594 202.726562 155.894531 207.804688 C 158.238281 212.875 172.300781 215.113281 178.734375 214.695312 C 241.304688 210.632812 263.488281 158.296875 260.605469 156.648438 C 256.976562 154.566406 253.574219 166.742188 246.363281 175.367188 C 238.121094 185.21875 227.34375 192.332031 227.34375 192.332031 C 255.875 166.589844 265.261719 137.507812 261.761719 136.460938 C 258.253906 135.40625 255.398438 148.425781 244.25 162.949219 C 233.105469 177.46875 220.792969 186.308594 220.792969 186.308594 C 244.449219 164.542969 262.480469 126.941406 259.28125 124.375 C 259.09375 124.222656 258.886719 124.148438 258.667969 124.148438 C 255.230469 124.148438 248.4375 142.421875 239.957031 154.421875 "/>
</clipPath></defs>
<g clip-path="url(#clip-0)">
<g clip-path="url(#clip-1)">
<path fill="#8B1863" d="M 121.117188 74.628906 L 90.996094 190.324219 L 215.515625 222.742188 L 245.636719 107.050781 Z M 121.117188 74.628906 "/>
</g>
</g>
<path fill="#98B2C2" d="M 193.410156 81.019531 C 204.332031 81.019531 213.183594 72.164062 213.183594 61.246094 C 213.183594 50.324219 204.332031 41.46875 193.410156 41.46875 C 182.488281 41.46875 173.632812 50.324219 173.632812 61.246094 C 173.632812 72.164062 182.488281 81.019531 193.410156 81.019531 "/>
<path fill="#98B2C2" d="M 249.070312 39.953125 C 247.230469 32.058594 243.445312 25.105469 236.558594 20.203125 C 238.480469 24.84375 240.542969 29.390625 241.300781 34.359375 C 243.5625 49.203125 236.949219 60.457031 226.503906 69.972656 C 216.511719 79.070312 204.277344 84.308594 191.960938 89.3125 C 184.539062 92.324219 177.582031 96.105469 171.546875 101.402344 C 161.96875 109.804688 154.382812 119.539062 151.527344 132.316406 C 151.527344 132.316406 146.886719 152.207031 148.355469 160.554688 C 148.785156 165.59375 149.574219 170.539062 152.601562 175.0625 C 153.550781 168.570312 151.960938 159.984375 161.386719 136.574219 C 164.519531 129.382812 179.097656 114.660156 181.808594 118.152344 C 184.078125 121.074219 181.0625 136.375 180.316406 139.480469 C 177.691406 150.460938 173.816406 160.085938 171.277344 170.613281 C 169.125 179.539062 167.203125 188.464844 166.519531 197.464844 C 170.566406 198.863281 175.203125 200.445312 179.753906 201.984375 C 179.9375 201.707031 180.046875 201.375 180.046875 201.023438 C 180.046875 200.0625 179.261719 199.273438 178.300781 199.273438 L 174.253906 199.273438 C 174.464844 198.054688 174.714844 196.839844 175.003906 195.628906 L 180.429688 195.628906 C 181.390625 195.628906 182.175781 194.84375 182.175781 193.882812 C 182.175781 192.921875 181.390625 192.132812 180.429688 192.132812 L 175.953125 192.132812 C 176.355469 190.789062 176.804688 189.449219 177.296875 188.109375 L 182.296875 188.109375 C 183.257812 188.109375 184.042969 187.324219 184.042969 186.359375 C 184.042969 185.398438 183.257812 184.613281 182.296875 184.613281 L 178.675781 184.613281 C 179.1875 183.394531 179.730469 182.171875 180.304688 180.9375 C 180.394531 180.953125 180.484375 180.96875 180.582031 180.96875 L 184.523438 180.96875 C 185.484375 180.96875 186.273438 180.179688 186.273438 179.21875 C 186.273438 178.257812 185.484375 177.472656 184.523438 177.472656 L 181.984375 177.472656 C 182.679688 176.089844 183.40625 174.695312 184.167969 173.285156 C 184.328125 173.335938 184.5 173.371094 184.675781 173.371094 L 187.867188 173.371094 C 188.828125 173.371094 189.617188 172.582031 189.617188 171.621094 C 189.617188 170.660156 188.828125 169.875 187.867188 169.875 L 186.042969 169.875 C 186.703125 168.699219 187.375 167.511719 188.070312 166.304688 L 192.804688 166.304688 C 193.765625 166.304688 194.550781 165.519531 194.550781 164.558594 C 194.550781 163.597656 193.765625 162.808594 192.804688 162.808594 L 190.097656 162.808594 C 190.777344 161.648438 191.472656 160.460938 192.179688 159.265625 L 198.277344 159.265625 C 199.234375 159.265625 200.023438 158.476562 200.023438 157.515625 C 200.023438 156.554688 199.234375 155.769531 198.277344 155.769531 L 194.238281 155.769531 C 194.542969 155.25 194.851562 154.730469 195.160156 154.199219 C 195.59375 153.457031 196.011719 152.707031 196.414062 151.945312 L 201.464844 151.945312 C 202.425781 151.945312 203.214844 151.160156 203.214844 150.199219 C 203.214844 149.238281 202.425781 148.453125 201.464844 148.453125 L 198.109375 148.453125 C 198.660156 147.226562 199.167969 145.980469 199.644531 144.730469 L 204.351562 144.730469 C 205.3125 144.730469 206.101562 143.941406 206.101562 142.980469 C 206.101562 142.019531 205.3125 141.234375 204.351562 141.234375 L 200.863281 141.234375 C 201.253906 140.023438 201.613281 138.808594 201.945312 137.589844 L 206.175781 137.589844 C 207.136719 137.589844 207.921875 136.800781 207.921875 135.839844 C 207.921875 134.878906 207.136719 134.09375 206.175781 134.09375 L 202.820312 134.09375 C 203.074219 132.976562 203.308594 131.859375 203.523438 130.75 L 206.933594 130.75 C 207.894531 130.75 208.683594 129.964844 208.683594 129.003906 C 208.683594 128.042969 207.894531 127.253906 206.933594 127.253906 L 204.140625 127.253906 C 204.285156 126.335938 204.417969 125.425781 204.535156 124.519531 L 206.554688 124.519531 C 207.515625 124.519531 208.304688 123.734375 208.304688 122.773438 C 208.304688 121.8125 207.515625 121.027344 206.554688 121.027344 L 204.949219 121.027344 C 205.054688 120.023438 205.144531 119.035156 205.222656 118.0625 L 206.933594 118.0625 C 207.894531 118.0625 208.683594 117.277344 208.683594 116.316406 C 208.683594 115.355469 207.894531 114.570312 206.933594 114.570312 L 205.449219 114.570312 C 205.511719 113.421875 205.554688 112.304688 205.585938 111.226562 L 206.933594 111.226562 C 207.894531 111.226562 208.683594 110.441406 208.683594 109.476562 C 208.683594 108.515625 207.894531 107.734375 206.933594 107.734375 L 205.640625 107.734375 C 205.644531 106.082031 205.617188 104.554688 205.578125 103.171875 L 206.175781 103.171875 C 207.136719 103.171875 207.921875 102.386719 207.921875 101.425781 C 207.921875 100.464844 207.136719 99.679688 206.175781 99.679688 L 205.425781 99.679688 C 205.378906 98.914062 205.335938 98.234375 205.289062 97.65625 C 205.347656 97.535156 205.398438 97.417969 205.453125 97.292969 C 206.511719 94.949219 204.296875 92.234375 203.019531 89.855469 C 210.507812 101.132812 216.324219 111.753906 214.832031 129.664062 C 214.492188 133.769531 212.976562 141.910156 211.925781 145.894531 C 207.832031 161.386719 197.375 172.5 190.84375 187.019531 C 188.367188 192.53125 186.523438 198.148438 185.277344 203.851562 C 186.734375 204.347656 188.148438 204.820312 189.496094 205.277344 C 189.933594 203.121094 190.511719 201.007812 191.234375 198.941406 C 194.328125 190.113281 198.886719 181.660156 204.332031 173.796875 C 208.1875 168.234375 224.550781 141.574219 227.578125 135.019531 C 235.152344 118.59375 242.300781 102.175781 246.675781 84.378906 C 250.347656 69.4375 252.570312 54.949219 249.070312 39.953125 "/>
<g clip-path="url(#clip-8)">
<g clip-path="url(#clip-9)">
<path fill="#45B9A7" d="M 135.671875 127.8125 L 158.058594 237.078125 L 283.148438 211.449219 L 260.761719 102.183594 Z M 135.671875 127.8125 "/>
</g>
</g>
</svg>
