<svg xmlns="http://www.w3.org/2000/svg" viewBox="0 0 16 12" fill="#8B1863" role="img" aria-hidden="true">
<path fill-rule="evenodd" d="M4,1.5 L8,6 L4,10.5 L0,6 Z M4,3.75 L6,6 L4,8.25 L2,6 Z M4,5 L5,6 L4,7 L3,6 Z M12,1.5 L16,6 L12,10.5 L8,6 Z M12,3.75 L14,6 L12,8.25 L10,6 Z M12,5 L13,6 L12,7 L11,6 Z"/>
<rect x="3.4" y="0.9" width="1.2" height="1.2"/>
<rect x="3.4" y="9.9" width="1.2" height="1.2"/>
<rect x="11.4" y="0.9" width="1.2" height="1.2"/>
<rect x="11.4" y="9.9" width="1.2" height="1.2"/>
</svg>
