<svg xmlns="http://www.w3.org/2000/svg" viewBox="0 0 16 12" fill="#45B9A7" role="img" aria-hidden="true">
<path d="M0,6 C2,6 2.6,3.4 4,3.4 C5.4,3.4 6,6 8,6 C10,6 10.6,8.6 12,8.6 C13.4,8.6 14,6 16,6" fill="none" stroke="#45B9A7" stroke-width="0.7" stroke-linecap="round"/>
<circle cx="8" cy="3.6" r="1.9"/>
<circle cx="8" cy="8.4" r="1.9"/>
<circle cx="5.6" cy="6" r="1.9"/>
<circle cx="10.4" cy="6" r="1.9"/>
<circle cx="8" cy="6" r="1.2"/>
<circle cx="0" cy="4.5" r="1.15"/>
<circle cx="0" cy="7.5" r="1.15"/>
<circle cx="-1.5" cy="6" r="1.15"/>
<circle cx="1.5" cy="6" r="1.15"/>
<circle cx="0" cy="6" r="0.7"/>
<circle cx="16" cy="4.5" r="1.15"/>
<circle cx="16" cy="7.5" r="1.15"/>
<circle cx="14.5" cy="6" r="1.15"/>
<circle cx="17.5" cy="6" r="1.15"/>
<circle cx="16" cy="6" r="0.7"/>
</svg>
